<svg width="56" height="73" viewBox="0 0 56 73" fill="none" xmlns="http://www.w3.org/2000/svg">
<g clip-path="url(#clip0_44_368)">
<g filter="url(#filter0_dd_44_368)">
<path d="M13.7618 65.7991L8.06661 65.7901V64.2063L15.6306 64.2243L15.7416 62.6917L17.6215 62.6465L17.6733 64.1521L19.4828 64.2544L19.5865 65.6606L21.4145 65.7299L21.4774 68.8494L23.3536 68.9156L23.4239 70.382L25.2298 70.4453L25.2964 71.8725L26.9284 71.9267C27.0579 72.0412 27.1763 72.4657 27.2244 72.7066H36.6831L36.931 71.9177L38.6592 71.8876L38.6444 68.8915L36.8829 68.7892L36.7719 67.2716L32.9418 67.2174L32.8974 64.2183L30.9953 64.1009V59.5149L32.9085 59.4156L32.9566 57.9552L34.8291 57.8679L34.8698 56.5038L36.8311 56.4286L36.9014 54.8236L38.6296 54.7905L38.6925 53.2639L40.6834 53.1495L40.7093 50.1474L42.5929 50.0721L42.604 42.3908L44.4505 42.3366L44.569 39.5694L49.6979 39.5543C50.4677 39.5543 49.8756 39.1388 52.107 39.1599L52.1847 37.6904L54.035 37.6272L54.0905 36.1548L56 36.1217V31.3972L54.0905 31.3581L54.0646 28.2837L52.181 28.2506L52.144 26.724L50.3085 26.6608L50.2197 23.6075L48.3657 23.5864L48.325 22.0538L44.5838 22.0206L44.532 20.506L40.7093 20.4789L40.6575 18.9553L36.9199 18.9102L36.8607 14.2731L34.9845 14.1526L34.9734 11.1686L33.1231 11.0451L33.0787 6.51945L31.3283 6.4773L31.2876 4.96873L29.4263 4.88743L29.3522 3.32467L27.5205 3.25842L27.4872 1.7348L25.5999 1.7077L25.5629 0.00944018L19.5458 0.00341797V6.40202C18.9241 6.48934 18.3616 6.49838 17.6511 6.47128L17.5734 4.9597L13.7988 4.82119L13.7396 3.33973L7.91859 3.35779V9.59681L9.92799 9.66305L9.9872 12.7013L11.8523 12.7494L11.9041 15.8238L13.7359 15.872L13.8099 17.3835L15.538 17.4136L15.6158 18.9192L19.468 18.9644L19.5902 20.4789L21.3775 20.5392L21.4959 22.0297L23.3647 22.0417L23.4128 23.5683L25.1595 23.6858L25.141 25.0077L23.4239 25.0769L23.3943 28.2596L21.4885 28.3138L21.3849 29.8224L19.5865 29.8646L19.4902 31.3852H11.9152L11.7968 29.8345L-9.23722 29.8435L-9.29273 31.3731L-13.1857 31.4032L-13.1598 32.957L-16.8937 33.0082L-17.0084 34.5258L-20.6942 34.5499L-20.7978 36.1186L-22.6333 36.1969L-22.6888 37.6814L-24.5391 37.7115L-24.6612 39.9458L-24.6945 40.7919L-26.4707 40.8431L-26.6373 42.3727L-28.3839 42.3908L-28.4431 45.4561L-30.4081 45.5314L-30.4192 48.5605L-32.2214 48.6027V57.889L-34.105 57.916L-34.2382 56.3894H-38.0128L-38.109 57.904L-40.0037 57.9431V64.2002L-38.0091 64.2695L-37.9277 65.6425L-36.1884 65.8503L-36.1292 67.2896H-34.3196L-34.2049 68.8945L-22.6703 68.9096L-22.6148 70.4212L-20.7719 70.4814L-20.7053 71.8755L-19.1029 71.9659C-18.8994 71.9779 -18.8143 72.5019 -18.7736 72.7187H17.6141L17.5993 68.8464L15.7194 68.7892L15.6269 67.2896L13.8284 67.2324L13.7618 65.8112V65.7991Z" fill="white"/>
</g>
</g>
<defs>
<filter id="filter0_dd_44_368" x="-40.0037" y="-1.99658" width="96.0037" height="76.7152" filterUnits="userSpaceOnUse" color-interpolation-filters="sRGB">
<feFlood flood-opacity="0" result="BackgroundImageFix"/>
<feColorMatrix in="SourceAlpha" type="matrix" values="0 0 0 0 0 0 0 0 0 0 0 0 0 0 0 0 0 0 127 0" result="hardAlpha"/>
<feOffset dy="2"/>
<feComposite in2="hardAlpha" operator="out"/>
<feColorMatrix type="matrix" values="0 0 0 0 0.956863 0 0 0 0 0.14902 0 0 0 0 0.988235 0 0 0 1 0"/>
<feBlend mode="normal" in2="BackgroundImageFix" result="effect1_dropShadow_44_368"/>
<feColorMatrix in="SourceAlpha" type="matrix" values="0 0 0 0 0 0 0 0 0 0 0 0 0 0 0 0 0 0 127 0" result="hardAlpha"/>
<feOffset dy="-2"/>
<feComposite in2="hardAlpha" operator="out"/>
<feColorMatrix type="matrix" values="0 0 0 0 0.164706 0 0 0 0 0.129412 0 0 0 0 0.972549 0 0 0 1 0"/>
<feBlend mode="normal" in2="effect1_dropShadow_44_368" result="effect2_dropShadow_44_368"/>
<feBlend mode="normal" in="SourceGraphic" in2="effect2_dropShadow_44_368" result="shape"/>
</filter>
<clipPath id="clip0_44_368">
<rect width="96" height="72.7062" fill="white" transform="translate(-40)"/>
</clipPath>
</defs>
</svg>
